<?xml version="1.0" standalone="no"?>
<!DOCTYPE svg PUBLIC "-//W3C//DTD SVG 20010904//EN"
 "http://www.w3.org/TR/2001/REC-SVG-20010904/DTD/svg10.dtd">
<svg version="1.0" xmlns="http://www.w3.org/2000/svg"
 width="740.000000pt" height="200.000000pt" viewBox="0 0 740.000000 200.000000"
 preserveAspectRatio="xMidYMid meet">

<g transform="translate(0.000000,200.000000) scale(0.100000,-0.100000)"
fill="#000000" stroke="none">
<path d="M815 1548 c-3 -9 -5 -31 -3 -49 2 -26 8 -33 28 -36 14 -2 30 -10 36
-18 8 -11 30 -15 76 -15 44 0 69 -5 77 -14 7 -8 23 -17 36 -20 14 -4 25 -12
25 -19 0 -14 55 -39 64 -29 4 3 -1 14 -10 24 -13 14 -20 15 -31 7 -11 -10 -12
-8 -7 6 5 13 4 16 -4 11 -7 -4 -12 -1 -12 6 0 18 -109 67 -184 82 -55 11 -61
15 -72 47 -9 26 -13 30 -19 17z"/>
<path d="M702 1475 c-23 -7 -49 -18 -56 -24 -7 -6 -15 -9 -18 -6 -3 3 -11 -1
-18 -10 -7 -8 -19 -15 -27 -15 -10 0 -14 -7 -10 -20 4 -16 2 -18 -12 -10 -13
6 -18 5 -18 -6 0 -27 46 -16 62 16 15 29 18 30 80 30 52 0 69 4 85 20 41 41
14 51 -68 25z"/>
<path d="M855 1350 c3 -18 7 -75 9 -127 3 -52 10 -101 17 -109 15 -18 44 -18
62 1 13 13 16 13 27 0 16 -19 44 -19 60 0 12 14 15 14 30 0 31 -28 70 -12 70
29 0 18 -106 206 -116 206 -3 0 17 -43 45 -96 28 -52 51 -99 51 -105 0 -16
-49 -10 -59 9 -9 16 -10 16 -16 0 -8 -21 -48 -24 -62 -5 -5 6 -29 55 -53 107
-52 113 -71 139 -65 90z"/>
<path d="M1160 1336 c0 -6 23 -47 51 -91 34 -54 59 -119 59 -155 0 -23 4 -30
20 -30 25 0 25 12 -1 96 -21 69 -87 177 -101 168 -5 -3 -8 0 -8 5 0 6 -4 11
-10 11 -5 0 -10 -2 -10 -4z"/>
<path d="M1112 1284 c1 -9 9 -19 16 -22 9 -3 13 2 10 14 -1 9 -9 19 -16 22 -9
3 -13 -2 -10 -14z"/>
<path d="M4725 1261 c-90 -22 -160 -90 -185 -181 -26 -92 1 -195 69 -260 67
-66 164 -87 265 -59 82 23 166 139 166 229 l0 30 -136 0 c-135 0 -135 0 -132
-22 3 -22 8 -23 106 -26 115 -3 116 -5 82 -72 -55 -108 -217 -132 -309 -46
-44 41 -61 83 -61 153 0 111 67 191 170 201 79 7 116 -4 167 -54 28 -26 56
-44 70 -44 28 0 28 6 3 47 -50 82 -173 129 -275 104z"/>
<path d="M5318 1256 c-26 -7 -62 -25 -82 -39 -73 -56 -100 -122 -94 -231 4
-92 40 -156 111 -200 41 -25 61 -30 130 -34 75 -3 87 -1 136 25 70 36 106 82
127 162 37 145 -34 275 -172 317 -57 17 -93 17 -156 0z m159 -57 c100 -38 152
-179 104 -284 -52 -116 -203 -150 -315 -72 -35 24 -76 109 -76 157 0 87 43
159 115 191 45 21 129 25 172 8z"/>
<path d="M5947 1260 c-121 -31 -190 -119 -191 -245 -2 -173 105 -274 278 -263
117 8 192 64 226 172 27 85 -3 219 -62 273 -62 57 -168 83 -251 63z m159 -69
c108 -49 144 -194 75 -303 -45 -71 -151 -106 -235 -78 -168 55 -185 306 -26
383 47 22 134 21 186 -2z"/>
<path d="M7038 1259 c-50 -14 -84 -48 -99 -98 -11 -36 -10 -47 4 -76 21 -45
61 -69 167 -101 101 -32 116 -40 131 -75 8 -21 8 -34 -3 -55 -18 -38 -52 -54
-118 -54 -66 0 -111 24 -130 69 -9 23 -19 31 -37 31 -23 0 -25 -3 -19 -32 7
-35 44 -81 58 -72 5 3 7 0 6 -7 -4 -19 59 -38 127 -38 112 -1 175 49 175 138
0 72 -46 106 -210 156 -66 20 -100 49 -100 85 0 40 25 66 76 79 76 19 141 -4
164 -59 9 -22 19 -30 37 -30 23 0 25 3 19 30 -13 67 -68 106 -159 114 -28 3
-69 0 -89 -5z"/>
<path d="M1520 1230 l0 -30 85 0 85 0 0 -226 0 -225 33 3 32 3 2 220 1 220 86
3 86 3 0 29 0 30 -205 0 -205 0 0 -30z"/>
<path d="M2030 1006 l0 -256 30 0 30 0 0 90 0 90 58 0 59 0 62 -90 c58 -84 65
-90 97 -90 19 0 34 3 34 6 0 4 -25 42 -55 85 -30 43 -55 82 -55 86 1 4 15 17
33 28 17 11 42 36 55 55 20 29 23 44 20 93 -5 65 -26 101 -79 132 -28 17 -56
21 -161 24 l-128 3 0 -256z m246 179 c66 -27 81 -116 28 -166 -23 -21 -37 -24
-120 -27 l-94 -4 0 99 c0 55 3 103 7 106 12 13 144 7 179 -8z"/>
<path d="M2530 1005 l0 -255 161 0 160 0 -3 28 -3 27 -128 3 -128 3 3 82 3 82
113 3 112 3 0 29 0 30 -115 0 -115 0 0 80 0 80 125 0 125 0 0 30 0 30 -155 0
-155 0 0 -255z"/>
<path d="M2977 1254 c-4 -4 -7 -119 -7 -256 l0 -248 30 0 30 0 2 198 3 197
140 -197 c133 -187 142 -198 173 -198 l32 0 0 255 0 255 -30 0 -30 0 0 -196
c0 -125 -4 -194 -10 -192 -5 2 -70 89 -143 193 -105 149 -139 191 -158 193
-14 2 -28 0 -32 -4z"/>
<path d="M3530 1004 l0 -256 133 4 c111 3 138 7 173 25 87 46 129 122 128 234
0 90 -39 161 -112 205 -61 37 -95 44 -224 44 l-98 0 0 -256z m233 185 c50 -13
113 -71 128 -116 6 -19 9 -62 7 -94 -3 -46 -11 -67 -34 -96 -46 -58 -85 -73
-186 -73 l-88 0 0 195 0 195 68 0 c37 0 84 -5 105 -11z"/>
<path d="M4030 1253 c0 -3 43 -79 95 -168 l95 -161 0 -87 0 -87 30 0 30 0 0
92 0 91 74 126 c40 69 84 143 96 164 l22 37 -35 0 c-35 0 -37 -2 -113 -130
-67 -114 -78 -129 -88 -113 -7 10 -41 69 -76 131 -61 108 -65 112 -97 112 -18
0 -33 -3 -33 -7z"/>
<path d="M6400 1010 l0 -250 123 0 c101 0 130 4 167 21 97 44 135 107 135 224
0 92 -20 141 -79 193 -51 44 -120 62 -243 62 l-103 0 0 -250z m265 177 c78
-40 121 -131 104 -218 -4 -24 -8 -47 -9 -51 -1 -17 -56 -71 -91 -88 -30 -16
-59 -20 -129 -20 l-90 0 0 193 c0 107 3 197 8 201 12 13 175 0 207 -17z"/>
<path d="M588 1223 c-9 -10 -21 -28 -27 -41 -7 -12 -16 -20 -21 -17 -6 3 -7
-1 -4 -9 4 -10 1 -16 -10 -16 -21 0 -9 -28 16 -36 12 -3 27 1 39 12 18 17 20
17 34 -2 13 -18 15 -18 44 -2 26 14 32 14 42 2 6 -8 17 -14 24 -14 17 0 45 33
45 53 0 15 -3 14 -20 -3 -25 -25 -35 -25 -53 0 -13 19 -16 19 -30 5 -35 -35
-76 0 -57 50 5 14 10 28 10 31 0 10 -18 3 -32 -13z"/>
<path d="M466 1213 c-6 -14 -5 -15 5 -6 7 7 10 15 7 18 -3 3 -9 -2 -12 -12z"/>
<path d="M318 1133 c7 -3 16 -2 19 1 4 3 -2 6 -13 5 -11 0 -14 -3 -6 -6z"/>
<path d="M359 1126 c7 -8 26 -13 46 -12 19 2 36 -2 38 -8 3 -8 8 -7 18 1 7 7
10 15 6 19 -11 11 -82 12 -89 0 -6 -8 -8 -7 -8 2 0 6 -5 12 -11 12 -8 0 -8 -4
0 -14z"/>
<path d="M552 1020 c0 -14 2 -19 5 -12 2 6 2 18 0 25 -3 6 -5 1 -5 -13z"/>
<path d="M616 1005 c-3 -8 -1 -15 4 -15 6 0 10 7 10 15 0 8 -2 15 -4 15 -2 0
-6 -7 -10 -15z"/>
<path d="M1136 930 c3 -14 10 -29 15 -34 14 -16 10 6 -7 34 l-15 25 7 -25z"/>
<path d="M1072 905 c0 -16 2 -22 5 -12 2 9 2 23 0 30 -3 6 -5 -1 -5 -18z"/>
<path d="M1282 874 c-12 -8 -22 -22 -22 -30 0 -8 -9 -33 -20 -54 -17 -34 -18
-40 -5 -40 11 0 15 -12 15 -47 l0 -48 20 25 c24 30 80 139 80 155 0 11 -33 55
-41 55 -3 0 -15 -7 -27 -16z"/>
<path d="M966 853 c-6 -14 -5 -15 5 -6 7 7 10 15 7 18 -3 3 -9 -2 -12 -12z"/>
<path d="M1027 859 c7 -9 10 -18 7 -21 -8 -8 20 -59 44 -81 19 -18 19 -17 3
33 -10 29 -27 57 -41 67 -20 13 -22 14 -13 2z"/>
<path d="M1106 845 c-4 -14 -1 -45 5 -68 l12 -42 8 35 c13 59 -11 131 -25 75z"/>
<path d="M1170 835 c-7 -9 -10 -18 -7 -21 3 -3 10 4 17 15 13 25 8 27 -10 6z"/>
<path d="M399 813 c-1 -5 -1 -11 0 -15 0 -5 -4 -7 -11 -5 -7 1 -15 -13 -19
-33 -3 -19 -7 -29 -8 -22 0 6 -6 12 -12 12 -19 0 21 -54 62 -83 l39 -28 0 43
c0 45 -28 138 -42 138 -4 0 -9 -3 -9 -7z"/>
<path d="M505 780 c-30 -8 -30 -8 8 -9 23 -1 36 3 32 9 -3 6 -7 9 -8 9 -1 -1
-15 -5 -32 -9z"/>
<path d="M1173 766 c-13 -6 -23 -14 -23 -19 0 -9 36 9 45 23 3 6 5 9 3 9 -2
-1 -13 -6 -25 -13z"/>
<path d="M480 675 c0 -42 11 -56 43 -54 7 0 2 4 -10 9 -44 18 -24 30 49 30 89
0 86 9 -5 11 -86 2 -94 25 -10 28 69 2 84 10 22 12 -24 1 -54 3 -66 4 -21 2
-23 -2 -23 -40z"/>
<path d="M1167 683 c-10 -9 -9 -53 1 -53 20 0 45 28 39 44 -6 16 -28 22 -40 9z"/>
<path d="M952 673 c-17 -7 -5 -23 19 -23 10 0 19 7 19 15 0 15 -14 18 -38 8z"/>
<path d="M648 663 c7 -3 16 -2 19 1 4 3 -2 6 -13 5 -11 0 -14 -3 -6 -6z"/>
<path d="M710 661 c-8 -3 -16 -13 -18 -23 -2 -13 4 -15 38 -11 33 5 40 3 40
-12 0 -13 -8 -16 -37 -14 -53 3 -167 0 -162 -5 2 -2 75 -6 161 -10 150 -7 157
-6 167 13 16 29 -11 51 -62 51 -23 0 -58 4 -77 9 -20 4 -42 5 -50 2z m147 -45
c-5 -15 -69 -14 -74 1 -3 8 9 12 37 11 26 0 39 -5 37 -12z"/>
<path d="M548 623 c7 -3 16 -2 19 1 4 3 -2 6 -13 5 -11 0 -14 -3 -6 -6z"/>
<path d="M618 623 c6 -2 18 -2 25 0 6 3 1 5 -13 5 -14 0 -19 -2 -12 -5z"/>
<path d="M357 573 c-11 -13 -17 -27 -14 -30 3 -2 13 7 23 21 22 34 15 42 -9 9z"/>
<path d="M421 544 c-6 -15 -9 -29 -7 -32 3 -3 8 3 12 12 9 25 23 19 38 -16 14
-32 14 -32 15 -7 1 14 6 30 12 36 9 9 6 10 -11 6 -15 -4 -27 -1 -35 10 -11 15
-13 14 -24 -9z"/>
<path d="M1230 559 l25 -10 -25 -19 c-19 -15 -21 -20 -8 -20 23 0 48 27 42 45
-4 8 -18 15 -33 14 l-26 0 25 -10z"/>
<path d="M521 509 c-6 -17 -11 -33 -11 -35 0 -1 14 -7 30 -13 18 -6 30 -6 30
0 0 5 -6 9 -14 9 -20 0 -30 18 -17 33 5 7 6 19 2 26 -6 9 -12 3 -20 -20z"/>
<path d="M1160 523 c0 -11 -7 -26 -15 -33 -13 -11 -18 -10 -29 6 -8 10 -12 22
-10 26 3 5 0 8 -5 8 -13 0 -13 0 0 -39 13 -36 10 -35 43 -19 29 13 43 45 27
61 -8 8 -11 5 -11 -10z"/>
<path d="M1058 496 c6 -47 -22 -50 -42 -3 -13 28 -14 29 -15 9 -2 -51 37 -80
67 -50 16 16 15 40 -1 62 -12 16 -13 14 -9 -18z"/>
<path d="M605 503 c-3 -8 -5 -27 -4 -41 l1 -27 7 24 c10 37 28 36 37 -1 6 -29
8 -30 15 -13 4 11 8 31 8 45 1 19 -1 22 -9 10 -8 -13 -10 -12 -15 1 -7 20 -32
20 -40 2z"/>
<path d="M697 473 c-10 -38 -3 -53 23 -53 25 0 50 27 49 53 -1 20 -2 19 -12
-5 -16 -40 -45 -37 -49 5 l-3 32 -8 -32z"/>
<path d="M913 473 c0 -28 17 -43 49 -43 23 0 29 4 24 16 -3 9 -6 20 -6 25 0 5
-4 9 -9 9 -5 0 -7 -9 -4 -20 8 -30 -25 -26 -37 5 -11 29 -17 32 -17 8z"/>
<path d="M819 442 c5 -34 6 -35 9 -8 2 16 0 32 -5 37 -5 5 -7 -7 -4 -29z"/>
<path d="M860 359 c0 -5 5 -7 10 -4 6 3 10 8 10 11 0 2 -4 4 -10 4 -5 0 -10
-5 -10 -11z"/>
</g>
</svg>
